<svg width="172" height="54" viewBox="0 0 172 54" fill="none" xmlns="http://www.w3.org/2000/svg">
<g filter="url(#filter0_i)">
<path d="M21.6917 46.9402C33.1192 46.9402 42.383 37.2284 42.383 25.2482C42.383 13.268 33.1192 3.55615 21.6917 3.55615C10.2642 3.55615 1.00037 13.268 1.00037 25.2482C1.00037 37.2284 10.2642 46.9402 21.6917 46.9402Z" fill="#F3F8FF"/>
</g>
<g filter="url(#filter1_d)">
<path fill-rule="evenodd" clip-rule="evenodd" d="M9.72709 23.653C5.82422 22.9498 2.3221 25.666 0.999878 26.3777C1.05903 27.1848 1.37447 30.0821 1.84762 31.5514C2.66729 34.0969 5.11629 39.5253 9.48977 42.9061C13.8632 46.2869 20.542 47.7819 26.2377 46.4649C31.9333 45.1482 36.0356 41.0912 38.3071 38.1372C40.1243 35.7743 41.2983 32.2153 41.6713 30.7444C41.6515 30.5787 40.7715 26.2818 39.2564 22.1583C37.4256 17.1759 34.9507 14.8627 34.1371 14.2221C32.7042 13.0941 31.7299 12.8342 30.7129 12.9409C30.2948 13.024 29.2483 13.4391 28.4075 14.4356C27.3565 15.6812 26.8818 16.5709 24.6104 19.9161C23.6611 21.3143 19.5928 23.3326 18.6435 23.653C17.5863 24.0097 14.27 24.4714 9.72709 23.653Z" fill="#A8DBFF" fill-opacity="0.5"/>
<path fill-rule="evenodd" clip-rule="evenodd" d="M9.72709 23.653C5.82422 22.9498 2.3221 25.666 0.999878 26.3777C1.05903 27.1848 1.37447 30.0821 1.84762 31.5514C2.66729 34.0969 5.11629 39.5253 9.48977 42.9061C13.8632 46.2869 20.542 47.7819 26.2377 46.4649C31.9333 45.1482 36.0356 41.0912 38.3071 38.1372C40.1243 35.7743 41.2983 32.2153 41.6713 30.7444C41.6515 30.5787 40.7715 26.2818 39.2564 22.1583C37.4256 17.1759 34.9507 14.8627 34.1371 14.2221C32.7042 13.0941 31.7299 12.8342 30.7129 12.9409C30.2948 13.024 29.2483 13.4391 28.4075 14.4356C27.3565 15.6812 26.8818 16.5709 24.6104 19.9161C23.6611 21.3143 19.5928 23.3326 18.6435 23.653C17.5863 24.0097 14.27 24.4714 9.72709 23.653Z" fill="url(#paint0_linear)"/>
</g>
<g filter="url(#filter2_i)">
<path fill-rule="evenodd" clip-rule="evenodd" d="M5.95402 28.24C4.81636 27.8702 2.19566 26.611 1.04443 26.0186L1.10351 27.0315L1.17987 28.0621C1.38303 29.6975 1.7074 30.5131 1.96983 31.745C2.30456 33.3164 4.22722 37.0568 5.64932 39.0122C6.90455 40.7381 8.95958 42.4974 11.0466 43.9218C12.8384 45.145 18.4951 47.0915 22.3877 46.9815C26.0499 46.8782 29.8587 45.5894 34.1927 42.4963C38.5267 39.4032 40.5019 34.4534 41.1321 32.6341C41.7176 30.9437 42.2346 28.2512 42.2937 26.9489L36.3258 24.3647L33.8541 23.3338C31.1114 22.2317 28.8294 21.3927 27.4208 21.023C25.6601 20.5607 23.6962 20.4896 22.4773 20.6318C21.5021 20.7456 20.1749 21.5562 19.6333 21.9472C19.2382 22.291 18.2178 23.2342 17.2969 24.2581C16.1456 25.538 14.622 26.9956 12.5227 28.0267C10.4235 29.0576 7.37611 28.7021 5.95402 28.24Z" fill="#56A4D2" fill-opacity="0.5"/>
<path fill-rule="evenodd" clip-rule="evenodd" d="M5.95402 28.24C4.81636 27.8702 2.19566 26.611 1.04443 26.0186L1.10351 27.0315L1.17987 28.0621C1.38303 29.6975 1.7074 30.5131 1.96983 31.745C2.30456 33.3164 4.22722 37.0568 5.64932 39.0122C6.90455 40.7381 8.95958 42.4974 11.0466 43.9218C12.8384 45.145 18.4951 47.0915 22.3877 46.9815C26.0499 46.8782 29.8587 45.5894 34.1927 42.4963C38.5267 39.4032 40.5019 34.4534 41.1321 32.6341C41.7176 30.9437 42.2346 28.2512 42.2937 26.9489L36.3258 24.3647L33.8541 23.3338C31.1114 22.2317 28.8294 21.3927 27.4208 21.023C25.6601 20.5607 23.6962 20.4896 22.4773 20.6318C21.5021 20.7456 20.1749 21.5562 19.6333 21.9472C19.2382 22.291 18.2178 23.2342 17.2969 24.2581C16.1456 25.538 14.622 26.9956 12.5227 28.0267C10.4235 29.0576 7.37611 28.7021 5.95402 28.24Z" fill="url(#paint1_linear)" fill-opacity="0.7"/>
</g>
<g filter="url(#filter3_d)">
<path fill-rule="evenodd" clip-rule="evenodd" d="M8.95478 28.0529C4.72205 27.7411 2.03591 28.1828 1.22192 28.4426C1.31237 28.9742 1.54496 30.3582 1.92565 31.6674C2.39899 33.2952 3.7555 36.348 4.91878 37.8679C6.08202 39.3875 6.50764 40.3878 9.71598 42.8764C13.621 45.9052 18.9855 47.0002 23.64 46.7706C27.2351 46.5934 31.2715 44.4583 32.7977 43.4308C34.324 42.4033 37.2836 40.0627 39.5559 36.2004C41.8831 32.2449 42.2835 27.7297 42.3367 26.9489C42.3762 26.372 42.4156 24.4558 42.3367 23.5905C41.8732 23.5786 40.6035 23.5311 39.1739 23.7655C37.4441 24.049 36.2911 24.8994 35.4093 25.4662C34.5275 26.0331 32.9673 27.0252 30.1184 28.4426C27.2694 29.8599 22.8603 29.789 19.8418 29.5411C16.8234 29.293 14.2457 28.4426 8.95478 28.0529Z" fill="#1670A4" fill-opacity="0.5"/>
<path fill-rule="evenodd" clip-rule="evenodd" d="M8.95478 28.0529C4.72205 27.7411 2.03591 28.1828 1.22192 28.4426C1.31237 28.9742 1.54496 30.3582 1.92565 31.6674C2.39899 33.2952 3.7555 36.348 4.91878 37.8679C6.08202 39.3875 6.50764 40.3878 9.71598 42.8764C13.621 45.9052 18.9855 47.0002 23.64 46.7706C27.2351 46.5934 31.2715 44.4583 32.7977 43.4308C34.324 42.4033 37.2836 40.0627 39.5559 36.2004C41.8831 32.2449 42.2835 27.7297 42.3367 26.9489C42.3762 26.372 42.4156 24.4558 42.3367 23.5905C41.8732 23.5786 40.6035 23.5311 39.1739 23.7655C37.4441 24.049 36.2911 24.8994 35.4093 25.4662C34.5275 26.0331 32.9673 27.0252 30.1184 28.4426C27.2694 29.8599 22.8603 29.789 19.8418 29.5411C16.8234 29.293 14.2457 28.4426 8.95478 28.0529Z" fill="url(#paint2_linear)" fill-opacity="0.4"/>
</g>
<g filter="url(#filter4_di)">
<path fill-rule="evenodd" clip-rule="evenodd" d="M7.93594 26.1929C5.67474 27.0764 2.57596 28.3595 1.35559 29.2144C1.61549 30.2003 1.92726 32.1378 2.69604 33.8345C3.43819 35.4726 5.25868 39.7391 9.63091 42.9378C13.6651 45.8894 19.5773 47.3823 24.025 46.8244C28.7431 46.2328 32.1073 44.2555 35.0642 41.8109C37.4297 39.855 39.263 36.7971 40.0712 35.2226C38.7039 35.1039 35.3605 34.6579 32.7841 33.8883C29.5637 32.9265 26.75 31.0383 25.1229 30.0407C23.4956 29.0431 20.1736 26.8342 17.0549 25.9434C13.9361 25.0528 10.5801 25.1596 7.93594 26.1929Z" fill="#002F5C" fill-opacity="0.6"/>
<path fill-rule="evenodd" clip-rule="evenodd" d="M7.93594 26.1929C5.67474 27.0764 2.57596 28.3595 1.35559 29.2144C1.61549 30.2003 1.92726 32.1378 2.69604 33.8345C3.43819 35.4726 5.25868 39.7391 9.63091 42.9378C13.6651 45.8894 19.5773 47.3823 24.025 46.8244C28.7431 46.2328 32.1073 44.2555 35.0642 41.8109C37.4297 39.855 39.263 36.7971 40.0712 35.2226C38.7039 35.1039 35.3605 34.6579 32.7841 33.8883C29.5637 32.9265 26.75 31.0383 25.1229 30.0407C23.4956 29.0431 20.1736 26.8342 17.0549 25.9434C13.9361 25.0528 10.5801 25.1596 7.93594 26.1929Z" fill="url(#paint3_linear)"/>
</g>
<path fill-rule="evenodd" clip-rule="evenodd" d="M120.279 38.5745C121.263 38.5745 122.065 37.7373 122.065 36.6716V21.3357C122.065 20.3082 121.263 19.4709 120.279 19.4709C119.258 19.4709 118.455 20.3082 118.455 21.3357V36.6716C118.455 37.7373 119.258 38.5745 120.279 38.5745ZM120.279 15.6655C120.752 15.6655 121.227 15.4752 121.555 15.1327C121.883 14.7903 122.065 14.2956 122.065 13.8008C122.065 13.306 121.883 12.8113 121.555 12.4688C121.227 12.1262 120.752 11.8979 120.279 11.8979C119.804 11.8979 119.331 12.1262 119.003 12.4688C118.674 12.8113 118.455 13.306 118.455 13.8008C118.455 14.2955 118.674 14.7903 119.003 15.1327C119.331 15.4752 119.804 15.6655 120.279 15.6655ZM83.2359 19.4335C83.0118 19.4335 81.4432 19.3166 81.3312 20.2522L81.3038 29.441C81.3038 30.6107 81.2937 31.9329 81.3038 32.0141L81.303 34.2362V36.6339C81.303 37.6994 82.2232 38.5634 83.2077 38.5634C84.2286 38.5634 85.0008 37.6994 85.0008 36.6339V29.2072C85.0008 26.0105 86.42 23.2426 89.4825 23.2426C92.5449 23.2426 93.9647 25.5427 93.9647 28.7394V36.6339C93.9647 37.6994 94.7691 38.5634 95.7536 38.5634C96.7743 38.5634 97.4343 37.6994 97.4343 36.6339V32.8327V28.9733C97.4343 23.6836 94.3262 19.545 89.4826 19.3831C87.4939 19.3168 86.3733 19.734 84.6927 20.2524C84.4686 19.6171 84.0677 19.4336 83.236 19.4336L83.2359 19.4335ZM105.616 34.7691H113.345C114.329 34.7691 115.132 35.6062 115.132 36.6338C115.132 37.6611 114.329 38.5365 113.345 38.5365H102.006C101.314 38.5365 100.657 38.1179 100.366 37.4711C100.038 36.786 100.111 36.0248 100.548 35.4542L109.662 23.2005H101.933C100.949 23.2005 100.147 22.3252 100.147 21.2978C100.147 20.2704 100.949 19.4332 101.933 19.4332H113.272C113.965 19.4332 114.621 19.8137 114.913 20.4986C115.241 21.1456 115.168 21.9068 114.73 22.4774L105.616 34.7692V34.7691ZM125.926 20.2522C126.038 19.3166 127.257 19.4335 127.719 19.4335C128.391 19.4335 129.287 19.3166 129.399 20.2522C130.632 19.8599 131.753 19.5504 133.195 19.509C135.383 19.509 137.352 20.4984 138.701 22.1348C140.05 20.4985 142.019 19.509 144.206 19.509C148.253 19.509 151.535 22.934 151.535 27.12C151.535 27.1961 151.534 27.2341 151.498 27.2722C151.534 27.3483 151.535 27.3864 151.535 27.4625V36.7098C151.535 37.7752 150.695 38.6126 149.711 38.6126C148.727 38.6126 147.925 37.7752 147.925 36.7098V27.4625V27.2722V27.12C147.925 24.9889 146.247 23.2763 144.206 23.2763C142.164 23.2763 140.487 24.9889 140.487 27.12V36.7098C140.487 37.7752 139.685 38.6126 138.701 38.6126C137.717 38.6126 136.878 37.7752 136.878 36.7098V27.12C136.878 24.9889 135.237 23.2763 133.196 23.2763C131.209 23.2763 129.568 24.897 129.481 26.947V31.4424C129.481 31.4833 129.479 31.5239 129.477 31.5641V36.7099C129.477 37.7753 128.675 38.6127 127.69 38.6127C126.669 38.6127 125.867 37.7753 125.867 36.7099V31.5639C125.865 31.5238 125.864 31.4833 125.864 31.4424L125.926 20.2522H125.926ZM162.714 38.5365C167.782 38.5365 171.866 34.2364 171.866 28.9847C171.866 23.695 167.782 19.4329 162.714 19.4329C157.683 19.4329 153.563 23.695 153.563 28.9847C153.563 34.2363 157.683 38.5365 162.714 38.5365ZM162.714 23.2004C165.777 23.2004 168.256 25.7882 168.256 28.9847C168.256 32.1433 165.777 34.7691 162.714 34.7691C159.651 34.7691 157.172 32.1433 157.172 28.9847C157.172 25.7882 159.651 23.2004 162.714 23.2004Z" fill="url(#paint4_linear)"/>
<path d="M70.9287 38.4231C69.2732 38.4491 67.7138 37.9006 66.3764 37.0461C65.0322 36.1872 63.9692 35.0397 63.1803 33.6065C62.3914 32.1672 62 30.5937 62 28.88C62 27.2455 62.3739 25.7392 63.1218 24.3486C63.8699 22.9642 64.8807 21.842 66.1601 21.0004C67.4397 20.1527 68.8654 19.7319 70.4372 19.7319C71.8862 19.7319 73.2184 20.104 74.4338 20.854C75.6491 21.6042 76.6249 22.6165 77.3612 23.8851C78.0974 25.1537 78.4655 26.5624 78.4655 28.1116C78.4655 28.6605 78.372 29.1301 78.185 29.5203C77.998 29.9168 77.6533 30.1119 77.1508 30.1119H64.6879C64.8689 31.0999 65.2429 32.0148 65.8097 32.8564C66.3766 33.6919 67.0887 34.3702 67.9483 34.8812C68.8124 35.3948 70.0245 35.645 71.0878 35.645C74.4755 35.645 74.9983 34.3098 75.7047 33.8113C76.219 33.4486 76.9633 33.3451 77.3548 33.7531C78.0974 34.527 77.7203 35.4161 76.9458 36.2472C75.3055 38.0079 73.1032 38.3888 70.9288 38.4232L70.9287 38.4231ZM75.8478 27.465C75.7484 26.5379 75.4446 25.6903 74.9422 24.9219C74.4397 24.1534 73.8029 23.5435 73.0258 23.0922C72.2486 22.6349 71.3897 22.4092 70.4549 22.4092C69.485 22.4092 68.6026 22.6409 67.8021 23.1044C67.0017 23.574 66.3414 24.1839 65.8097 24.9463C65.278 25.7087 64.9158 26.5503 64.723 27.4651H75.8479L75.8478 27.465Z" fill="#042D48" stroke="#042D48" stroke-width="1.07808" stroke-miterlimit="22.9256"/>
<defs>
<filter id="filter0_i" x="1.00037" y="3.55615" width="41.5604" height="43.5618" filterUnits="userSpaceOnUse" color-interpolation-filters="sRGB">
<feFlood flood-opacity="0" result="BackgroundImageFix"/>
<feBlend mode="normal" in="SourceGraphic" in2="BackgroundImageFix" result="shape"/>
<feColorMatrix in="SourceAlpha" type="matrix" values="0 0 0 0 0 0 0 0 0 0 0 0 0 0 0 0 0 0 127 0" result="hardAlpha"/>
<feOffset dx="0.177799" dy="0.177799"/>
<feGaussianBlur stdDeviation="0.0888993"/>
<feComposite in2="hardAlpha" operator="arithmetic" k2="-1" k3="1"/>
<feColorMatrix type="matrix" values="0 0 0 0 0.852222 0 0 0 0 0.858241 0 0 0 0 0.866667 0 0 0 1 0"/>
<feBlend mode="normal" in2="shape" result="effect1_innerShadow"/>
</filter>
<filter id="filter1_d" x="0.0664357" y="11.9855" width="42.8939" height="36.2437" filterUnits="userSpaceOnUse" color-interpolation-filters="sRGB">
<feFlood flood-opacity="0" result="BackgroundImageFix"/>
<feColorMatrix in="SourceAlpha" type="matrix" values="0 0 0 0 0 0 0 0 0 0 0 0 0 0 0 0 0 0 127 0"/>
<feOffset dx="0.177799" dy="0.177799"/>
<feGaussianBlur stdDeviation="0.55562"/>
<feColorMatrix type="matrix" values="0 0 0 0 0.8125 0 0 0 0 0.8125 0 0 0 0 0.8125 0 0 0 0.5 0"/>
<feBlend mode="normal" in2="BackgroundImageFix" result="effect1_dropShadow"/>
<feBlend mode="normal" in="SourceGraphic" in2="effect1_dropShadow" result="shape"/>
</filter>
<filter id="filter2_i" x="1.04443" y="20.5662" width="41.2937" height="26.4642" filterUnits="userSpaceOnUse" color-interpolation-filters="sRGB">
<feFlood flood-opacity="0" result="BackgroundImageFix"/>
<feBlend mode="normal" in="SourceGraphic" in2="BackgroundImageFix" result="shape"/>
<feColorMatrix in="SourceAlpha" type="matrix" values="0 0 0 0 0 0 0 0 0 0 0 0 0 0 0 0 0 0 127 0" result="hardAlpha"/>
<feOffset dx="0.0444496" dy="0.0444496"/>
<feGaussianBlur stdDeviation="0.0444496"/>
<feComposite in2="hardAlpha" operator="arithmetic" k2="-1" k3="1"/>
<feColorMatrix type="matrix" values="0 0 0 0 0.556233 0 0 0 0 0.725021 0 0 0 0 0.829167 0 0 0 1 0"/>
<feBlend mode="normal" in2="shape" result="effect1_innerShadow"/>
</filter>
<filter id="filter3_d" x="1.22192" y="23.5785" width="41.516" height="23.5772" filterUnits="userSpaceOnUse" color-interpolation-filters="sRGB">
<feFlood flood-opacity="0" result="BackgroundImageFix"/>
<feColorMatrix in="SourceAlpha" type="matrix" values="0 0 0 0 0 0 0 0 0 0 0 0 0 0 0 0 0 0 127 0"/>
<feOffset dx="0.177799" dy="0.177799"/>
<feGaussianBlur stdDeviation="0.0888993"/>
<feColorMatrix type="matrix" values="0 0 0 0 0 0 0 0 0 0 0 0 0 0 0 0 0 0 0.25 0"/>
<feBlend mode="normal" in2="BackgroundImageFix" result="effect1_dropShadow"/>
<feBlend mode="normal" in="SourceGraphic" in2="effect1_dropShadow" result="shape"/>
</filter>
<filter id="filter4_di" x="1.26669" y="25.2516" width="38.9823" height="21.866" filterUnits="userSpaceOnUse" color-interpolation-filters="sRGB">
<feFlood flood-opacity="0" result="BackgroundImageFix"/>
<feColorMatrix in="SourceAlpha" type="matrix" values="0 0 0 0 0 0 0 0 0 0 0 0 0 0 0 0 0 0 127 0"/>
<feOffset dx="0.0888993" dy="0.0888993"/>
<feGaussianBlur stdDeviation="0.0444496"/>
<feColorMatrix type="matrix" values="0 0 0 0 0 0 0 0 0 0.133843 0 0 0 0 0.245833 0 0 0 0.5 0"/>
<feBlend mode="normal" in2="BackgroundImageFix" result="effect1_dropShadow"/>
<feBlend mode="normal" in="SourceGraphic" in2="effect1_dropShadow" result="shape"/>
<feColorMatrix in="SourceAlpha" type="matrix" values="0 0 0 0 0 0 0 0 0 0 0 0 0 0 0 0 0 0 127 0" result="hardAlpha"/>
<feOffset dx="-0.0888993" dy="-0.0888993"/>
<feGaussianBlur stdDeviation="0.666744"/>
<feComposite in2="hardAlpha" operator="arithmetic" k2="-1" k3="1"/>
<feColorMatrix type="matrix" values="0 0 0 0 0 0 0 0 0 0 0 0 0 0 0 0 0 0 0.4 0"/>
<feBlend mode="normal" in2="shape" result="effect2_innerShadow"/>
</filter>
<linearGradient id="paint0_linear" x1="23.3358" y1="15.6537" x2="61.4505" y2="25.2951" gradientUnits="userSpaceOnUse">
<stop stop-color="#D5EEFF"/>
<stop offset="1" stop-color="#6DBFFA"/>
</linearGradient>
<linearGradient id="paint1_linear" x1="27.692" y1="29.5814" x2="16.7124" y2="18.4065" gradientUnits="userSpaceOnUse">
<stop stop-color="#599AC1"/>
<stop offset="1" stop-color="#EEF8FF" stop-opacity="0"/>
</linearGradient>
<linearGradient id="paint2_linear" x1="40.3376" y1="25.8265" x2="6.34755" y2="51.6483" gradientUnits="userSpaceOnUse">
<stop stop-color="#3184B5"/>
<stop offset="1" stop-color="white" stop-opacity="0"/>
</linearGradient>
<linearGradient id="paint3_linear" x1="18.4465" y1="49.5586" x2="10.1644" y2="26.9479" gradientUnits="userSpaceOnUse">
<stop stop-color="#002134"/>
<stop offset="1" stop-color="#00395A" stop-opacity="0"/>
</linearGradient>
<linearGradient id="paint4_linear" x1="81.4881" y1="25.2307" x2="172.017" y2="25.2307" gradientUnits="userSpaceOnUse">
<stop stop-color="#042D48"/>
<stop offset="1" stop-color="#042D48"/>
</linearGradient>
</defs>
</svg>
