<svg width="55" height="55" viewBox="0 0 55 55" fill="none" xmlns="http://www.w3.org/2000/svg">
<g filter="url(#filter0_d)">
<rect x="4" y="4" width="45" height="45" rx="22.5" fill="white"/>
<path d="M27.0674 29.9395H24.3281C24.321 29.5456 24.3174 29.3057 24.3174 29.2197C24.3174 28.3317 24.4642 27.6012 24.7578 27.0283C25.0514 26.4554 25.6387 25.8109 26.5195 25.0947C27.4004 24.3786 27.9268 23.9095 28.0986 23.6875C28.3636 23.3366 28.4961 22.9499 28.4961 22.5273C28.4961 21.9401 28.2598 21.4388 27.7871 21.0234C27.3216 20.6009 26.6914 20.3896 25.8965 20.3896C25.1302 20.3896 24.4893 20.6081 23.9736 21.0449C23.458 21.4818 23.1035 22.1478 22.9102 23.043L20.1387 22.6992C20.2174 21.4173 20.7617 20.3288 21.7715 19.4336C22.7884 18.5384 24.1204 18.0908 25.7676 18.0908C27.5007 18.0908 28.8792 18.5456 29.9033 19.4551C30.9274 20.3574 31.4395 21.4102 31.4395 22.6133C31.4395 23.2793 31.2497 23.9095 30.8701 24.5039C30.4977 25.0983 29.6956 25.9076 28.4639 26.9316C27.8265 27.4616 27.429 27.8877 27.2715 28.21C27.1211 28.5322 27.0531 29.1087 27.0674 29.9395ZM24.3281 34V30.9814H27.3467V34H24.3281Z" fill="#F9B161"/>
</g>
<defs>
<filter id="filter0_d" x="0" y="0" width="55" height="55" filterUnits="userSpaceOnUse" color-interpolation-filters="sRGB">
<feFlood flood-opacity="0" result="BackgroundImageFix"/>
<feColorMatrix in="SourceAlpha" type="matrix" values="0 0 0 0 0 0 0 0 0 0 0 0 0 0 0 0 0 0 127 0"/>
<feOffset dx="1" dy="1"/>
<feGaussianBlur stdDeviation="2.5"/>
<feColorMatrix type="matrix" values="0 0 0 0 0.137255 0 0 0 0 0.137255 0 0 0 0 0.137255 0 0 0 0.15 0"/>
<feBlend mode="normal" in2="BackgroundImageFix" result="effect1_dropShadow"/>
<feBlend mode="normal" in="SourceGraphic" in2="effect1_dropShadow" result="shape"/>
</filter>
</defs>
</svg>
